<svg width="23" height="25" viewBox="0 0 23 25" fill="none" xmlns="http://www.w3.org/2000/svg">
<path d="M10.8374 25C10.6493 24.9538 10.4592 24.9134 10.2736 24.8594C8.82505 24.4382 7.82179 23.1198 7.81203 21.6153C7.80487 20.4759 7.80747 19.3373 7.81398 18.1979C7.81463 18.0495 7.76971 17.9707 7.6408 17.8932C5.19223 16.4284 3.91749 14.2663 3.91358 11.4134C3.90902 8.14192 6.29445 5.20246 9.55552 4.40298C11.2189 3.99543 12.8316 4.19074 14.3817 4.91405C14.7274 5.07551 14.8485 5.33267 14.7202 5.61067C14.5946 5.88345 14.3094 5.95572 13.9689 5.79882C12.1812 4.97525 10.3836 4.94921 8.59263 5.76952C6.24301 6.8457 4.74431 9.25911 4.89731 11.834C5.04054 14.2383 6.22804 16.0215 8.34849 17.1641C8.66229 17.3333 8.79901 17.5313 8.7938 17.8887C8.77687 18.9453 8.78794 20.0026 8.78794 21.0762C10.4149 21.0762 12.0282 21.0762 13.6708 21.0762C13.6708 20.9883 13.6708 20.9017 13.6708 20.8151C13.6708 19.8145 13.6766 18.8132 13.6669 17.8125C13.6636 17.513 13.7886 17.3379 14.0477 17.1973C16.4006 15.9232 17.5874 13.9453 17.5673 11.2669C17.5607 10.4121 17.3368 9.597 16.9761 8.81966C16.9195 8.69726 16.8641 8.55729 16.8693 8.42773C16.8791 8.20637 17.0132 8.05208 17.2398 8.0013C17.4781 7.94791 17.7014 8.03971 17.7951 8.28841C18.0126 8.86393 18.2678 9.43685 18.3908 10.0352C19.038 13.196 17.635 16.2689 14.84 17.8822C14.6955 17.9655 14.6421 18.054 14.6434 18.222C14.6512 19.2962 14.648 20.3698 14.6473 21.444C14.6467 23.2884 13.5223 24.6341 11.7085 24.9629C11.6779 24.9688 11.6493 24.987 11.62 24.9994C11.3583 25 11.0978 25 10.8374 25ZM13.6037 22.0886C12.0132 22.0886 10.4344 22.0886 8.85174 22.0886C9.08091 23.2175 10.0887 24.028 11.2404 24.0228C12.3804 24.0182 13.3791 23.2064 13.6037 22.0886Z" fill="#59598E"/>
<path d="M11.3746 0C11.6382 0.143229 11.7294 0.361329 11.7216 0.662111C11.7047 1.31901 11.7177 1.97657 11.7157 2.63347C11.7151 2.99935 11.5171 3.22852 11.2157 3.22071C10.9227 3.2129 10.7411 2.99154 10.7404 2.63347C10.7391 1.97592 10.7522 1.31836 10.7346 0.662111C10.7268 0.36198 10.8179 0.143229 11.0816 0.000651043C11.1793 0 11.2769 0 11.3746 0Z" fill="#59598E"/>
<path d="M11.2485 12.3945C11.8501 11.3281 12.7186 10.6035 13.8865 10.2409C14.6326 10.0091 15.3989 10.0534 16.1619 10.0677C16.3976 10.0723 16.5753 10.2376 16.5857 10.4694C16.6333 11.5052 16.6443 12.541 16.13 13.4922C15.2928 15.0397 13.9946 15.8509 12.2342 15.9167C12.0877 15.9219 11.9412 15.9186 11.7947 15.9206C11.7797 15.9206 11.7641 15.9278 11.7159 15.9408C11.7159 16.0182 11.7159 16.1042 11.7159 16.1901C11.7159 16.8815 11.7172 17.5729 11.7153 18.2643C11.7146 18.6205 11.5265 18.8431 11.2309 18.8451C10.9347 18.8477 10.7407 18.6244 10.74 18.2715C10.7381 17.4994 10.7394 16.7266 10.7394 15.9395C10.3767 15.9173 10.0213 15.9128 9.67037 15.8718C7.60526 15.6289 5.93924 13.8216 5.86177 11.7448C5.84744 11.3548 5.8533 10.9635 5.85851 10.5736C5.86242 10.293 6.02974 10.0742 6.28625 10.0677C7.08182 10.0482 7.8813 10.0072 8.65539 10.265C9.71789 10.6191 10.535 11.2767 11.1124 12.2344C11.1417 12.2826 11.1717 12.3307 11.2029 12.3783C11.2068 12.3841 11.2172 12.3841 11.2485 12.3945ZM12.4256 14.9147C14.2186 14.8457 15.893 13.1498 15.589 11.0488C13.1033 10.8177 11.7576 12.8053 11.7485 14.2025C11.8188 14.138 11.8794 14.0866 11.9353 14.0306C12.2296 13.7383 12.5187 13.4401 12.8182 13.153C13.0408 12.9395 13.3175 12.9362 13.5167 13.127C13.7225 13.3242 13.7192 13.6074 13.5044 13.8438C13.4223 13.9343 13.3331 14.0176 13.2465 14.1035C12.9822 14.3646 12.7179 14.6257 12.4256 14.9147ZM6.85265 11.0501C6.61112 13.4219 8.45878 14.8698 10.005 14.9147C9.9386 14.8425 9.88782 14.7819 9.83248 14.7259C9.55123 14.4434 9.26672 14.1641 8.98807 13.8789C8.73872 13.6244 8.7231 13.3366 8.9399 13.1276C9.15084 12.9245 9.42688 12.9427 9.67427 13.1849C9.97636 13.4811 10.2726 13.7832 10.5734 14.0807C10.6131 14.1205 10.6619 14.1511 10.7251 14.2005C10.535 12.2025 8.89953 10.8796 6.85265 11.0501Z" fill="#59598E"/>
<path d="M17.4022 5.8379C17.2824 5.7448 17.1209 5.66212 17.0226 5.53126C16.9002 5.3685 16.9236 5.15886 17.0649 5.01238C17.5454 4.51563 18.033 4.02475 18.5324 3.54688C18.7062 3.38021 18.9862 3.41342 19.1567 3.57357C19.3338 3.73959 19.3794 4.03321 19.2075 4.2142C18.7257 4.72071 18.2257 5.21095 17.7251 5.69923C17.6613 5.76173 17.5506 5.77605 17.4022 5.8379Z" fill="#59598E"/>
<path d="M19.3714 19.1368C19.2575 19.2852 19.1832 19.4695 19.0537 19.5261C18.9131 19.5867 18.6578 19.5971 18.5615 19.5098C18.0387 19.0346 17.5406 18.53 17.0537 18.0177C16.8818 17.8367 16.9345 17.5456 17.1175 17.3803C17.3024 17.213 17.5654 17.2006 17.7614 17.3757C17.9736 17.5652 18.1683 17.7735 18.3701 17.9747C18.6181 18.2214 18.8727 18.4623 19.1097 18.7195C19.2086 18.8262 19.2692 18.9695 19.3714 19.1368Z" fill="#59598E"/>
<path d="M5.56067 5.34186C5.44348 5.48053 5.35234 5.6498 5.21171 5.7416C5.02226 5.86465 4.81588 5.79629 4.65637 5.64004C4.34778 5.3386 4.04505 5.03131 3.73971 4.72662C3.58997 4.57688 3.43567 4.43235 3.29309 4.2761C3.10038 4.06451 3.09973 3.78326 3.28072 3.59315C3.46757 3.39654 3.76835 3.38417 3.98059 3.59055C4.44218 4.03782 4.89596 4.49355 5.34322 4.95514C5.42786 5.04238 5.46822 5.17389 5.56067 5.34186Z" fill="#59598E"/>
<path d="M5.56678 17.7058C5.46197 17.8828 5.40923 18.0248 5.31288 18.1244C4.88905 18.5632 4.45545 18.9929 4.02056 19.4206C3.78292 19.6543 3.48409 19.6641 3.28422 19.4584C3.08891 19.2578 3.09868 18.9681 3.32329 18.7403C3.76274 18.2937 4.20675 17.8516 4.65207 17.4108C4.81027 17.2539 5.01535 17.1817 5.20676 17.3034C5.34934 17.3939 5.44244 17.5612 5.56678 17.7058Z" fill="#59598E"/>
<path d="M1.45183 12.0118C1.14389 12.0118 0.835295 12.0157 0.527351 12.0105C0.214199 12.0053 0.000656948 11.8041 5.90397e-06 11.5248C-0.00129618 11.2455 0.212897 11.0391 0.524096 11.0365C1.14845 11.0313 1.77345 11.0319 2.3978 11.0365C2.7103 11.0391 2.92449 11.2429 2.9258 11.5215C2.92645 11.8002 2.7129 12.0046 2.40105 12.0105C2.08465 12.0157 1.76824 12.0118 1.45183 12.0118Z" fill="#59598E"/>
<path d="M20.9955 12.0117C20.6875 12.0117 20.3789 12.015 20.071 12.0111C19.7435 12.0065 19.5248 11.8014 19.5306 11.5137C19.5365 11.235 19.75 11.0391 20.0664 11.0371C20.683 11.0332 21.2995 11.0332 21.9161 11.0371C22.2429 11.0391 22.463 11.2467 22.4564 11.5339C22.4506 11.8125 22.2364 12.0065 21.9206 12.0111C21.612 12.015 21.3041 12.0117 20.9955 12.0117Z" fill="#59598E"/>
<path d="M16.0666 6.20315C16.3264 6.20575 16.5445 6.4219 16.5484 6.68167C16.5529 6.9512 16.3264 7.17841 16.0575 7.17581C15.788 7.17321 15.5666 6.94143 15.5757 6.67255C15.5848 6.41279 15.8062 6.20054 16.0666 6.20315Z" fill="#59598E"/>
</svg>
