<svg width="26" height="25" viewBox="0 0 26 25" fill="none" xmlns="http://www.w3.org/2000/svg">
<path d="M25.2773 15.9476C25.2773 16.3591 25.2773 16.7705 25.2773 17.1819C25.2114 17.5854 25.1739 17.9955 25.0752 18.3904C24.2787 21.5824 22.3217 23.7441 19.1627 24.6446C16.0399 25.5339 13.2666 24.7328 10.9232 22.4822C10.8008 22.3644 10.6856 22.3124 10.5157 22.313C8.65614 22.319 6.79655 22.3255 4.93762 22.3137C3.37623 22.3038 2.28022 20.7931 2.79498 19.3357C2.93519 18.9401 3.22285 18.5958 3.45456 18.2088C2.96415 17.7835 2.66728 17.1983 2.66859 16.4808C2.66991 15.7653 2.97995 15.186 3.51775 14.7114C2.96744 14.2289 2.66662 13.645 2.66859 12.9282C2.66991 12.2127 2.97864 11.6327 3.52828 11.1489C3.46114 11.093 3.40782 11.0548 3.36174 11.0094C2.93256 10.5874 2.69032 10.0753 2.66991 9.47429C2.62581 8.1762 3.63031 7.13022 4.92907 7.11179C5.34509 7.10586 5.76045 7.11113 6.21202 7.11113C5.69594 6.24288 5.70252 5.40096 6.20873 4.54325C6.08168 4.54325 5.99216 4.54325 5.90329 4.54325C4.69407 4.54325 3.48418 4.55246 2.27495 4.53996C1.4304 4.5314 0.7649 4.1608 0.333081 3.43342C0.178389 3.17077 0.108613 2.85744 0 2.5678C0 2.37033 0 2.17285 0 1.97537C0.0118487 1.94575 0.027647 1.91744 0.0355461 1.88716C0.368627 0.614741 1.16117 0.000583099 2.47177 0.000583099C6.31405 0.000583099 10.157 0.000583099 13.9993 0.000583099C14.1553 0.000583099 14.3119 -0.00204995 14.4679 0.00387441C15.8213 0.0545606 16.8469 1.32106 16.5948 2.6514C16.5369 2.9575 16.4032 3.24845 16.3025 3.55454C16.3868 3.55454 16.477 3.55454 16.5671 3.55454C17.7928 3.5552 19.0192 3.54664 20.2448 3.55849C21.1664 3.5677 21.9899 4.16146 22.3138 5.01983C22.6449 5.89795 22.4125 6.8702 21.718 7.50148C21.2856 7.89446 20.7741 8.08996 20.1915 8.09523C19.7781 8.09918 19.3647 8.09589 18.9415 8.09589C19.0257 8.38684 19.1864 8.51257 19.4477 8.60407C22.3671 9.62042 24.2418 11.6222 25.0344 14.6166C25.1489 15.0517 25.1976 15.504 25.2773 15.9476ZM9.47897 16.5651C9.46515 20.6463 12.7834 23.9837 16.866 23.9949C20.9373 24.0061 24.2668 20.7003 24.2892 16.6256C24.3116 12.5444 20.9979 9.20177 16.914 9.184C12.8322 9.16622 9.49345 12.4812 9.47897 16.5651ZM8.32965 0.987976C6.3305 0.987976 4.33136 0.987318 2.33288 0.988634C1.7049 0.989293 1.20725 1.3441 1.04203 1.90164C0.793864 2.73698 1.40605 3.54993 2.29799 3.55322C3.87716 3.55915 5.45699 3.5552 7.03616 3.5552C9.44672 3.5552 11.8566 3.55322 14.2672 3.55717C14.6187 3.55783 14.934 3.47291 15.2026 3.24186C15.6127 2.88838 15.7548 2.33412 15.5686 1.82989C15.3796 1.31777 14.9156 0.989951 14.3514 0.988634C12.3444 0.986001 10.3367 0.987976 8.32965 0.987976ZM14.1316 7.10981C16.1386 7.10981 18.1456 7.11245 20.1533 7.1085C20.9294 7.10718 21.5087 6.50816 21.4738 5.7584C21.4416 5.05867 20.8695 4.54325 20.1165 4.54325C16.9081 4.54193 13.6997 4.54259 10.492 4.54259C9.69422 4.54259 8.89641 4.53864 8.09794 4.54391C7.51406 4.54786 7.02102 4.92438 6.86501 5.46679C6.62409 6.3041 7.23891 7.10586 8.1348 7.1085C10.1339 7.1131 12.1324 7.10981 14.1316 7.10981ZM17.4051 8.23478C17.4058 8.20253 17.4071 8.17027 17.4077 8.13802C17.2326 8.12419 17.0569 8.09918 16.8818 8.09918C13.5747 8.09655 10.2669 8.09721 6.9598 8.09721C6.28509 8.09721 5.61037 8.0926 4.93565 8.09852C4.35309 8.10379 3.85939 8.48031 3.70404 9.02338C3.46443 9.86135 4.07991 10.6605 4.97712 10.6625C6.87752 10.6671 8.77792 10.6618 10.6783 10.6677C10.864 10.6684 10.9963 10.6164 11.1332 10.488C12.5452 9.17017 14.2099 8.40132 16.1393 8.23873C16.5592 8.2045 16.9832 8.23478 17.4051 8.23478ZM10.0951 11.6564C8.30463 11.6564 6.56353 11.6406 4.82374 11.6643C4.15956 11.6735 3.64611 12.2857 3.65401 12.9558C3.66257 13.6213 4.19642 14.2026 4.8639 14.2125C6.13763 14.2309 7.41137 14.2204 8.68511 14.2151C8.74633 14.2151 8.84704 14.1578 8.8635 14.1065C9.13667 13.2382 9.54348 12.4384 10.0951 11.6564ZM8.69235 18.7617C7.50287 18.7617 6.24493 18.7597 4.98765 18.7624C4.2267 18.7643 3.65138 19.3245 3.65467 20.0506C3.6573 20.776 4.23328 21.327 4.9995 21.3276C6.57867 21.3302 8.15718 21.3283 9.73635 21.3276C9.79625 21.3276 9.85681 21.3164 9.86406 21.3158C9.47831 20.4758 9.09389 19.6372 8.69235 18.7617ZM8.57847 15.2071C7.37912 15.2071 6.19622 15.2058 5.01332 15.2077C4.23131 15.2091 3.65204 15.7587 3.65335 16.4933C3.65467 17.2273 4.23394 17.7723 5.01859 17.7737C6.12842 17.7756 7.23759 17.7743 8.34742 17.7737C8.41785 17.7737 8.48895 17.7651 8.49158 17.7651C8.49158 17.3214 8.48039 16.9028 8.49487 16.4854C8.51001 16.0681 8.54885 15.6514 8.57847 15.2071Z" fill="#59598E"/>
<path d="M17.39 19.8669C17.3531 20.356 17.1945 20.5686 16.8805 20.568C16.5698 20.5673 16.4164 20.36 16.3736 19.8669C15.9662 19.7504 15.5916 19.5582 15.298 19.2304C15.0018 18.8999 14.8313 18.5175 14.8123 18.0732C14.7978 17.7414 14.9959 17.509 15.2869 17.4998C15.5673 17.4906 15.7654 17.6927 15.797 18.0192C15.8431 18.5043 16.2143 18.8631 16.7245 18.9164C17.2946 18.9756 17.7817 18.6979 17.9278 18.2311C18.0858 17.7249 17.7237 17.1904 17.1372 17.0831C16.8878 17.0377 16.6284 17.0404 16.3809 16.9864C15.5034 16.7935 14.857 16.0661 14.8129 15.244C14.7662 14.377 15.2974 13.6128 16.1749 13.3225C16.3532 13.2632 16.3947 13.1829 16.3941 13.0124C16.3934 12.7162 16.6126 12.501 16.8825 12.501C17.1517 12.5016 17.3782 12.7162 17.3696 13.0131C17.3637 13.2119 17.4519 13.2685 17.6151 13.3291C18.3912 13.6174 18.8592 14.1637 18.9501 15.0004C18.9856 15.3308 18.8151 15.5658 18.542 15.6053C18.2477 15.6481 17.9943 15.4645 17.9752 15.1617C17.9469 14.7154 17.7218 14.4224 17.3163 14.2684C16.8831 14.1038 16.4711 14.1631 16.115 14.4659C15.8352 14.7042 15.7187 15.0122 15.8405 15.373C15.9826 15.7929 16.3078 15.9891 16.7285 16.0503C16.9964 16.0892 17.2735 16.0931 17.5309 16.1675C18.3715 16.4104 18.9468 17.1575 18.9547 17.9764C18.9626 18.79 18.4176 19.5167 17.5842 19.8024C17.5236 19.8228 17.4618 19.8432 17.39 19.8669Z" fill="#59598E"/>
<path d="M23.3057 16.4137C23.2945 17.6302 23.0589 18.6281 22.5704 19.5622C22.4447 19.8024 22.242 19.8979 22.0004 19.8446C21.793 19.7985 21.6173 19.5977 21.6318 19.3805C21.6403 19.2548 21.6903 19.1257 21.7463 19.0099C22.4618 17.509 22.5171 15.9865 21.8674 14.4554C21.3691 13.2804 20.5443 12.3897 19.4147 11.7868C19.364 11.7598 19.3127 11.7335 19.2633 11.7051C18.9783 11.5426 18.8815 11.2806 19.0112 11.0252C19.1416 10.7698 19.4305 10.6664 19.7063 10.8303C20.1573 11.0969 20.6233 11.3569 21.0202 11.6933C22.5217 12.967 23.2577 14.6147 23.3057 16.4137Z" fill="#59598E"/>
<path d="M10.4631 16.7745C10.4737 15.5494 10.71 14.5528 11.1971 13.6174C11.3136 13.3936 11.494 13.289 11.7421 13.3324C11.9706 13.3719 12.118 13.524 12.1305 13.7491C12.1384 13.8867 12.0831 14.0387 12.0219 14.1677C11.3064 15.6692 11.2517 17.1911 11.9008 18.7223C12.3951 19.8894 13.2147 20.7741 14.3311 21.3797C14.4107 21.4224 14.493 21.4606 14.5681 21.51C14.809 21.6686 14.8801 21.9385 14.7478 22.1748C14.6227 22.398 14.3489 22.5053 14.1092 22.3671C13.6557 22.1051 13.1864 21.851 12.7875 21.5172C11.2629 20.2422 10.5112 18.5847 10.4631 16.7745Z" fill="#59598E"/>
<path d="M17.6501 10.1721C17.9312 10.1767 18.1544 10.4025 18.1478 10.675C18.1412 10.9488 17.9121 11.1628 17.6304 11.1582C17.3493 11.1529 17.1281 10.9291 17.1334 10.6553C17.1387 10.3808 17.3677 10.1668 17.6501 10.1721Z" fill="#59598E"/>
<path d="M16.1366 22.0208C16.4177 22.0248 16.6402 22.2486 16.6355 22.5217C16.6309 22.7949 16.4012 23.0108 16.1208 23.0069C15.8404 23.0029 15.6166 22.7778 15.6212 22.5053C15.6258 22.2314 15.8542 22.0169 16.1366 22.0208Z" fill="#59598E"/>
</svg>
