<svg width="26" height="25" viewBox="0 0 26 25" fill="none" xmlns="http://www.w3.org/2000/svg">
<path d="M8.51761 23.6466C8.44956 23.8862 8.41276 24.114 8.31832 24.3139C8.25583 24.4459 8.12181 24.6042 7.99543 24.6299C7.86767 24.6556 7.66282 24.5723 7.57394 24.4674C7.16912 23.9918 6.78929 23.4953 6.40946 22.9988C6.18864 22.7092 6.27683 22.419 6.61847 22.2975C7.18995 22.094 7.7642 21.8975 8.33985 21.7058C8.70718 21.5836 8.98494 21.8385 8.90161 22.2183C8.85925 22.4113 8.80301 22.6016 8.74259 22.8321C9.01757 22.8745 9.27866 22.9245 9.54114 22.9536C13.3644 23.3772 16.9489 21.3829 18.6168 18.3165C20.7631 14.3703 19.3139 9.24715 15.4413 7.1258C11.8826 5.17666 7.28716 6.48002 5.39496 9.97556C3.63608 13.2246 4.88806 17.3958 8.1114 19.0262C10.305 20.1358 13.0186 19.7616 14.8282 18.1006C14.8914 18.0423 14.9553 17.9839 15.0296 17.9159C15.2171 18.1131 15.4004 18.3054 15.5983 18.513C15.0296 19.0887 14.365 19.5491 13.6165 19.8865C10.2112 21.4225 6.26225 19.9692 4.56794 16.5597C2.75143 12.9059 4.09298 8.55485 7.6663 6.51197C11.768 4.16633 16.8669 5.58704 19.2132 9.72975C21.7769 14.2565 20.2208 19.8497 15.6691 22.462C13.4832 23.7161 11.15 24.1209 8.66968 23.6612C8.62941 23.6536 8.58636 23.6529 8.51761 23.6466ZM7.73573 23.3376C7.79129 23.1217 7.83503 22.9516 7.88989 22.7377C7.70379 22.805 7.56492 22.8557 7.40173 22.9148C7.517 23.0613 7.60658 23.1745 7.73573 23.3376Z" fill="#59598E"/>
<path d="M15.7205 10.6012C15.5559 10.79 15.4143 10.9824 15.2414 11.14C15.1032 11.2657 15.0789 11.3893 15.1921 11.5129C15.2594 11.5872 15.3796 11.6483 15.4789 11.6525C16.2712 11.6851 16.292 11.7018 16.292 12.4913C16.292 12.8642 16.2927 13.2377 16.292 13.6106C16.2906 14.0307 16.1545 14.1634 15.7261 14.1654C15.6393 14.1661 15.5525 14.1696 15.4657 14.1647C15.3275 14.1557 15.2296 14.1731 15.1657 14.3335C15.1053 14.4849 15.1456 14.5654 15.2442 14.6696C15.8136 15.2674 15.8108 15.2945 15.2324 15.8729C14.9622 16.1431 14.6949 16.4153 14.422 16.6826C14.1699 16.9298 13.9602 16.9249 13.7033 16.6756C13.6221 16.5972 13.5526 16.5007 13.4596 16.4423C13.3797 16.3923 13.27 16.3548 13.1804 16.366C13.0471 16.3819 12.9457 16.4562 12.9624 16.6291C12.9763 16.7749 12.9652 16.9242 12.9555 17.0714C12.9388 17.3346 12.7874 17.4922 12.5256 17.4964C11.9792 17.5041 11.432 17.5047 10.8855 17.4964C10.6244 17.4922 10.4723 17.3305 10.4591 17.0687C10.4522 16.9388 10.4536 16.8083 10.4585 16.6784C10.4633 16.543 10.4585 16.4389 10.2925 16.3771C10.1446 16.3222 10.062 16.35 9.95572 16.4514C9.35507 17.0228 9.33216 17.0208 8.75234 16.4437C8.47598 16.1681 8.19753 15.8945 7.92464 15.6146C7.6934 15.3771 7.69549 15.1744 7.92255 14.9362C8.00657 14.848 8.0899 14.7591 8.18086 14.6793C8.28086 14.5918 8.32738 14.5126 8.26211 14.3696C8.19961 14.2335 8.13295 14.1654 7.97463 14.1717C7.0254 14.2127 7.11637 13.9467 7.12192 13.2745C7.1247 12.919 7.12123 12.5628 7.12262 12.2073C7.12401 11.8031 7.26289 11.6684 7.67535 11.6663C7.77048 11.6656 7.86631 11.6622 7.96144 11.667C8.0899 11.674 8.18503 11.6622 8.24128 11.5094C8.29266 11.3685 8.28641 11.2837 8.18017 11.1706C7.59202 10.5484 7.5955 10.5449 8.20933 9.93177C8.4607 9.6804 8.71207 9.42834 8.96483 9.17766C9.24883 8.89574 9.44951 8.89713 9.74046 9.18183C9.80851 9.24849 9.87794 9.31446 9.94183 9.38528C10.0265 9.48042 10.1022 9.5443 10.2494 9.47347C10.3807 9.41028 10.4751 9.35056 10.4494 9.19016C10.4466 9.1735 10.4501 9.15544 10.4501 9.13808C10.4716 8.35412 10.4946 8.3326 11.2917 8.3326C11.682 8.3326 12.0729 8.32982 12.4631 8.33329C12.8027 8.33676 12.9506 8.48744 12.9575 8.82769C12.9596 8.94018 12.961 9.05337 12.9569 9.16586C12.9527 9.29154 12.952 9.39292 13.111 9.44778C13.2492 9.49569 13.3457 9.51444 13.4506 9.39015C13.5394 9.2846 13.6485 9.19572 13.7533 9.10475C13.9797 8.90824 14.1769 8.90894 14.3949 9.12211C14.7671 9.48597 15.1365 9.8533 15.4976 10.2283C15.5823 10.3165 15.6282 10.4428 15.7205 10.6012ZM11.2855 9.17766C11.3424 9.73526 11.064 10.0373 10.5848 10.2408C10.0967 10.4477 9.69601 10.3692 9.36965 10.0012C9.16134 10.1977 8.97316 10.3748 8.76554 10.5706C9.18911 10.9171 9.22592 11.3198 9.02316 11.8094C8.82039 12.2982 8.50028 12.544 7.97324 12.5038C7.97324 12.794 7.97324 13.0586 7.97324 13.3322C8.42876 13.3065 8.75582 13.4592 8.95788 13.8787C9.203 14.3883 9.27036 14.8564 8.77179 15.2598C8.97455 15.4632 9.16064 15.65 9.36271 15.8521C9.71338 15.4369 10.1182 15.398 10.6057 15.6007C11.0931 15.8042 11.3327 16.1312 11.2952 16.6666C11.4542 16.6666 11.5834 16.6666 11.7125 16.6666C11.8472 16.6666 11.9819 16.6666 12.1132 16.6666C12.1451 16.0972 12.2784 15.8611 12.6305 15.6841C13.1443 15.4258 13.6374 15.3285 14.0318 15.825C14.2415 15.6285 14.4345 15.448 14.6428 15.2528C14.2123 14.9043 14.1956 14.4987 14.3956 14.0127C14.5977 13.521 14.9303 13.2926 15.4455 13.3252C15.4455 13.0364 15.4455 12.7788 15.4455 12.5239C14.3123 12.3746 13.9589 11.5129 14.5963 10.5914C14.4095 10.3921 14.229 10.1991 14.0408 9.99843C13.7394 10.3296 13.3922 10.4463 12.9444 10.2831C12.4201 10.0915 12.0632 9.80122 12.1243 9.17836C11.8438 9.17766 11.5861 9.17766 11.2855 9.17766Z" fill="#59598E"/>
<path d="M24.226 19.3859C24.4211 19.4657 24.592 19.5275 24.7565 19.6039C25.11 19.7685 25.1509 20.1518 24.8267 20.3615C24.2871 20.7094 23.7406 21.0462 23.1893 21.3732C22.9095 21.5392 22.6261 21.4107 22.5498 21.0899C22.4067 20.4913 22.272 19.8914 22.1449 19.2894C22.0658 18.9158 22.3602 18.67 22.7275 18.7943C22.8421 18.8331 22.9546 18.8804 23.0671 18.9248C23.1796 18.9692 23.2921 19.0144 23.4483 19.0769C24.626 15.5827 24.4767 12.1719 22.831 8.87912C21.179 5.57523 18.5737 3.37264 14.9497 2.40466C15.0143 2.13941 15.0768 1.88318 15.1469 1.5957C19.014 2.62964 21.7977 4.96625 23.5663 8.4861C25.3301 11.9997 25.4884 15.6494 24.226 19.3859ZM23.2407 20.3664C23.4053 20.2629 23.5379 20.1796 23.7004 20.0768C23.4962 19.9983 23.333 19.9351 23.1296 19.8567C23.1712 20.0469 23.2018 20.1872 23.2407 20.3664Z" fill="#59598E"/>
<path d="M7.50241 2.13736C7.417 1.87766 7.31076 1.64435 7.26979 1.40062C7.24618 1.25896 7.2816 1.05759 7.37326 0.960378C7.45589 0.872191 7.66698 0.833305 7.79267 0.870802C8.4322 1.05898 9.06478 1.27355 9.69598 1.49019C10.0487 1.61102 10.1383 1.87697 9.93207 2.18389C9.56474 2.73106 9.18561 3.2713 8.81272 3.815C8.70509 3.97193 8.54885 4.08234 8.37317 4.01082C8.23916 3.95666 8.10375 3.82681 8.03848 3.69626C7.9246 3.46711 7.86349 3.21227 7.76836 2.93313C4.63321 4.32468 2.35423 6.49811 1.33209 9.802C0.308569 13.1101 0.902269 16.1924 2.86252 19.0464C2.64379 19.2061 2.42922 19.3637 2.19174 19.538C0.0634505 16.4494 -0.571219 13.1191 0.536328 9.54855C1.64387 5.98149 4.10617 3.62057 7.50241 2.13736ZM8.57454 2.69009C8.71828 2.48108 8.83147 2.31582 8.9641 2.12209C8.73634 2.04987 8.54121 1.98807 8.30998 1.91446C8.40303 2.18944 8.48011 2.41442 8.57454 2.69009Z" fill="#59598E"/>
<path d="M14.2075 1.67695C14.2026 2.59424 13.4436 3.33931 12.5229 3.33167C11.6063 3.32334 10.8647 2.56229 10.8751 1.64084C10.8855 0.735363 11.6368 -0.00276973 12.5465 7.81319e-06C13.4659 0.00139659 14.2123 0.7555 14.2075 1.67695ZM12.5396 0.832577C12.0868 0.833272 11.7111 1.20755 11.7084 1.65959C11.7056 2.11233 12.0771 2.49147 12.5291 2.49772C12.9916 2.50396 13.3777 2.11927 13.3735 1.65681C13.37 1.20477 12.9923 0.831883 12.5396 0.832577Z" fill="#59598E"/>
<path d="M4.20262 22.9162C3.28464 22.9148 2.5354 22.16 2.53957 21.2406C2.54373 20.3226 3.30062 19.5768 4.22137 19.5838C5.12894 19.5907 5.86985 20.3372 5.87193 21.2461C5.87332 22.1655 5.12199 22.9175 4.20262 22.9162ZM5.03797 21.2559C5.04075 20.8038 4.66925 20.424 4.21721 20.4177C3.76308 20.4115 3.38186 20.7788 3.37283 21.2316C3.36311 21.6947 3.74363 22.0836 4.2061 22.0829C4.65814 22.0822 5.03519 21.7072 5.03797 21.2559Z" fill="#59598E"/>
<path d="M21.291 25C20.373 24.9986 19.6238 24.2438 19.6279 23.3245C19.6321 22.4065 20.389 21.6607 21.3098 21.6677C22.2173 21.6746 22.9589 22.4211 22.9603 23.33C22.9617 24.2494 22.2104 25.0007 21.291 25ZM20.4612 23.312C20.4501 23.7647 20.8147 24.1515 21.266 24.1661C21.7278 24.1813 22.1222 23.8036 22.1263 23.3418C22.1305 22.8898 21.7604 22.5086 21.3084 22.5009C20.8556 22.4933 20.4723 22.8606 20.4612 23.312Z" fill="#59598E"/>
<path d="M9.62451 12.9128C9.6259 11.7643 10.5668 10.8297 11.7167 10.8331C12.8645 10.8373 13.7971 11.7803 13.7901 12.9316C13.7839 14.0669 12.8479 14.9974 11.7104 14.9988C10.5626 15.0002 9.62382 14.0613 9.62451 12.9128ZM11.6855 14.1655C12.3673 14.1759 12.9409 13.6287 12.9569 12.951C12.9735 12.2573 12.4194 11.6768 11.7299 11.6664C11.0473 11.656 10.4744 12.2032 10.4585 12.8802C10.4425 13.5739 10.9966 14.1544 11.6855 14.1655Z" fill="#59598E"/>
</svg>
