<svg width="26" height="25" viewBox="0 0 26 25" fill="none" xmlns="http://www.w3.org/2000/svg">
<path d="M9.67012 24.2088C9.67012 24.4864 9.67012 24.7351 9.67012 25C6.43868 25 3.22539 25 0 25C0 22.8603 0 20.7293 0 18.5788C3.21262 18.5788 6.42523 18.5788 9.66608 18.5788C9.66608 18.8336 9.66608 19.089 9.66608 19.3667C10.0271 19.3667 10.3625 19.3821 10.6953 19.362C10.9924 19.3438 11.2828 19.0023 11.2828 18.7126C11.2828 15.3843 11.2828 12.0561 11.2828 8.72718C11.2828 7.81227 11.5934 7.42506 12.4928 7.2375C12.4928 6.4362 12.4888 5.63019 12.4935 4.82485C12.5076 2.65016 13.9462 0.767902 16.0375 0.180368C19.0787 -0.673372 22.134 1.61089 22.1717 4.76972C22.1818 5.59254 22.173 6.41469 22.173 7.24759C22.7989 7.32086 23.217 7.62807 23.3582 8.24653C23.3878 8.3756 23.3831 8.51341 23.3831 8.64786C23.3844 11.5728 23.3844 14.4977 23.3844 17.4226C23.3844 17.5227 23.3844 17.6229 23.3844 17.7338C23.4994 17.756 23.6042 17.7735 23.7084 17.7956C24.7941 18.0289 25.3648 19.2658 24.7665 20.1982C24.1635 21.1373 23.5262 22.0603 22.8332 22.9342C22.1367 23.8122 21.164 24.2068 20.0427 24.2081C16.6977 24.2108 13.3533 24.2095 10.0083 24.2095C9.90742 24.2088 9.80725 24.2088 9.67012 24.2088ZM12.0888 18.6333C12.3638 18.607 12.6058 18.5647 12.8471 18.564C14.5949 18.558 16.3427 18.5606 18.0905 18.5613C18.588 18.5613 18.9665 18.7758 19.1991 19.2154C19.2663 19.3431 19.3422 19.3734 19.472 19.3707C19.7826 19.3633 20.0985 19.333 20.4037 19.3761C20.9684 19.4561 21.3381 19.2544 21.6359 18.7677C21.8221 18.4638 22.1159 18.2131 22.4003 17.9872C22.5307 17.8837 22.5804 17.8064 22.5804 17.6518C22.5771 14.6516 22.5784 11.6514 22.5777 8.65122C22.5777 8.18939 22.4601 8.07242 21.9969 8.07242C18.8966 8.07242 15.7955 8.07242 12.6952 8.07242C12.1977 8.07242 12.0902 8.17998 12.0902 8.67743C12.0902 11.9048 12.0902 15.1316 12.0902 18.359C12.0888 18.4484 12.0888 18.5405 12.0888 18.6333ZM9.67818 23.394C9.74675 23.3974 9.78843 23.4014 9.82944 23.4014C13.2666 23.4014 16.7031 23.4081 20.1402 23.3967C21.0323 23.394 21.7798 23.0196 22.3135 22.3057C22.9118 21.5057 23.4684 20.6742 24.0392 19.854C24.2032 19.6181 24.2402 19.3566 24.1319 19.087C24.0129 18.7892 23.7864 18.6097 23.4711 18.5694C23.0947 18.521 22.7532 18.5882 22.5065 18.921C22.0164 19.5824 21.5156 20.2359 21.0269 20.898C20.5792 21.5037 19.9836 21.7934 19.232 21.7901C17.8452 21.784 16.4584 21.8042 15.0722 21.7807C14.5183 21.7712 14.0665 21.9171 13.7129 22.3474C13.6773 22.3904 13.6262 22.42 13.6182 22.4267C13.4178 22.2411 13.2303 22.0677 13.0441 21.8956C13.5489 21.2671 14.1815 20.9491 14.9962 20.976C15.7686 21.0015 16.5424 20.9854 17.3155 20.98C17.9164 20.976 18.3816 20.5989 18.5141 20.0228C18.6162 19.5791 18.4482 19.368 17.9904 19.368C16.293 19.3673 14.5956 19.3667 12.8982 19.3694C12.7564 19.3694 12.6138 19.3848 12.4727 19.403C11.9752 19.4668 11.6082 19.7908 11.1995 20.0355C11.0717 20.1122 10.9097 20.1606 10.7605 20.1686C10.4035 20.1875 10.0446 20.1747 9.67818 20.1747C9.67818 21.261 9.67818 22.3164 9.67818 23.394ZM21.367 7.25431C21.367 6.6661 21.3758 6.10411 21.3643 5.54212C21.3549 5.06416 21.3764 4.57746 21.2924 4.11161C20.9233 2.07137 19.0505 0.644211 17.0156 0.81832C14.9109 0.998479 13.3116 2.72814 13.3002 4.84233C13.2962 5.57305 13.2988 6.30377 13.3002 7.03449C13.3002 7.10642 13.3096 7.17902 13.3136 7.24355C13.8581 7.24355 14.3818 7.24355 14.9162 7.24355C14.9162 6.39183 14.8981 5.5596 14.9203 4.72939C14.9525 3.51735 15.9636 2.49824 17.1723 2.42765C18.4078 2.35572 19.5506 3.20678 19.6932 4.41209C19.7913 5.24096 19.7389 6.08798 19.753 6.92693C19.755 7.03314 19.753 7.13936 19.753 7.25431C20.3009 7.25431 20.8185 7.25431 21.367 7.25431ZM0.803995 24.1967C2.42476 24.1967 4.01728 24.1967 5.62057 24.1967C5.62057 22.586 5.62057 20.9868 5.62057 19.3841C4.00787 19.3841 2.40862 19.3841 0.803995 19.3841C0.803995 20.9935 0.803995 22.586 0.803995 24.1967ZM18.947 7.25296C18.947 6.47048 18.947 5.70817 18.9463 4.94585C18.9463 4.85375 18.9483 4.76031 18.9376 4.66889C18.8482 3.88573 18.2008 3.27131 17.427 3.23165C16.6244 3.19064 15.9125 3.72036 15.7666 4.51024C15.7061 4.83628 15.7249 5.17777 15.7216 5.51255C15.7155 6.08932 15.7196 6.66543 15.7196 7.25229C16.8019 7.25296 17.8559 7.25296 18.947 7.25296ZM6.45952 19.3794C6.45952 20.9982 6.45952 22.5968 6.45952 24.1967C6.7264 24.1967 6.97512 24.1967 7.25141 24.1967C7.25141 23.1231 7.25141 22.0617 7.25141 20.9995C7.53375 20.9995 7.78853 20.9995 8.06078 20.9995C8.06078 22.0731 8.06078 23.1285 8.06078 24.1933C8.33371 24.1933 8.58849 24.1933 8.84394 24.1933C8.84394 22.5786 8.84394 20.98 8.84394 19.3794C8.57706 19.3794 8.32833 19.3794 8.05204 19.3794C8.05204 19.6456 8.05204 19.9018 8.05204 20.1559C7.76903 20.1559 7.51426 20.1559 7.242 20.1559C7.242 19.889 7.242 19.6396 7.242 19.3794C6.97512 19.3794 6.7264 19.3794 6.45952 19.3794ZM19.3382 20.1848C19.2152 20.457 19.1029 20.7064 18.9907 20.9545C19.6837 21.0701 20.2128 20.8052 20.5099 20.1848C20.1133 20.1848 19.7227 20.1848 19.3382 20.1848Z" fill="#59598E"/>
<path d="M6.85416 13.7064C6.5604 13.7064 6.311 13.7064 6.05084 13.7064C6.05084 11.4282 6.05084 9.16273 6.05084 6.87309C6.46561 6.87309 6.88172 6.87309 7.35968 6.87309C6.64106 5.64021 5.94866 4.45304 5.23206 3.22352C4.5168 4.45035 3.82641 5.63416 3.11384 6.85561C3.56962 6.85561 3.98304 6.85561 4.41058 6.85561C4.41058 9.41549 4.41058 11.9505 4.41058 14.5057C4.1632 14.5057 3.90775 14.5057 3.62541 14.5057C3.62541 12.2402 3.62541 9.96874 3.62541 7.66969C2.98343 7.66969 2.36766 7.66969 1.70483 7.66969C2.88864 5.64021 4.04825 3.65173 5.23206 1.62292C6.41587 3.65241 7.57547 5.64088 8.75457 7.66229C8.10049 7.66229 7.49077 7.66229 6.85416 7.66229C6.85416 9.68236 6.85416 11.6856 6.85416 13.7064Z" fill="#59598E"/>
<path d="M6.82397 15.3272C6.56045 15.3272 6.31844 15.3272 6.05762 15.3272C6.05762 15.0684 6.05762 14.8143 6.05762 14.5427C6.30769 14.5427 6.56179 14.5427 6.82397 14.5427C6.82397 14.8062 6.82397 15.0657 6.82397 15.3272Z" fill="#59598E"/>
<path d="M3.63232 15.3447C3.89114 15.3447 4.13919 15.3447 4.40607 15.3447C4.40607 15.5982 4.40607 15.8523 4.40607 16.1232C4.15465 16.1232 3.90055 16.1232 3.63232 16.1232C3.63232 15.8711 3.63232 15.623 3.63232 15.3447Z" fill="#59598E"/>
<path d="M6.05371 16.1447C6.32059 16.1447 6.56259 16.1447 6.82477 16.1447C6.82477 16.4021 6.82477 16.6569 6.82477 16.9292C6.57738 16.9292 6.32328 16.9292 6.05371 16.9292C6.05371 16.675 6.05371 16.4209 6.05371 16.1447Z" fill="#59598E"/>
<path d="M17.3428 17.7533C14.8946 17.7573 12.8973 15.7655 12.896 13.3192C12.8947 10.8703 14.8872 8.87707 17.3354 8.87842C19.7723 8.87909 21.7635 10.8642 21.7702 13.2997C21.7769 15.7487 19.7878 17.7492 17.3428 17.7533ZM17.3428 9.6851C15.3456 9.68174 13.7107 11.3025 13.7027 13.293C13.6946 15.3023 15.3208 16.9432 17.3233 16.9466C19.3192 16.95 20.9554 15.3279 20.9635 13.338C20.9716 11.3287 19.3454 9.68846 17.3428 9.6851Z" fill="#59598E"/>
<path d="M20.9751 9.26361C20.9751 8.99674 20.9751 8.74801 20.9751 8.48718C21.2346 8.48718 21.4826 8.48718 21.7509 8.48718C21.7509 8.73725 21.7509 8.99136 21.7509 9.26361C21.5028 9.26361 21.2487 9.26361 20.9751 9.26361Z" fill="#59598E"/>
<path d="M12.9089 8.88855C13.1704 8.88855 13.4185 8.88855 13.6847 8.88855C13.6847 9.14467 13.6847 9.39878 13.6847 9.66902C13.4306 9.66902 13.1765 9.66902 12.9089 9.66902C12.9089 9.41424 12.9089 9.16618 12.9089 8.88855Z" fill="#59598E"/>
<path d="M13.6983 16.962C13.6983 17.2289 13.6983 17.4709 13.6983 17.7331C13.4409 17.7331 13.1861 17.7331 12.9138 17.7331C12.9138 17.4857 12.9138 17.2316 12.9138 16.962C13.1679 16.962 13.422 16.962 13.6983 16.962Z" fill="#59598E"/>
<path d="M20.9746 17.7412C20.9746 17.4777 20.9746 17.2296 20.9746 16.9641C21.2327 16.9641 21.4869 16.9641 21.7557 16.9641C21.7557 17.2202 21.7557 17.4743 21.7557 17.7412C21.4996 17.7412 21.2509 17.7412 20.9746 17.7412Z" fill="#59598E"/>
<path d="M15.7204 11.3005C16.1338 11.3005 16.5116 11.3005 16.9163 11.3005C16.9163 11.037 16.9163 10.7815 16.9163 10.5093C17.1986 10.5093 17.4534 10.5093 17.733 10.5093C17.733 10.7688 17.733 11.0256 17.733 11.277C18.5175 11.4215 18.9464 11.8632 18.9283 12.4978C18.6782 12.4978 18.4281 12.4978 18.1552 12.4978C18.0934 12.167 17.8594 12.087 17.5455 12.1025C17.2188 12.1186 16.8914 12.1058 16.5331 12.1058C16.5331 12.2712 16.5116 12.4299 16.5385 12.5804C16.5768 12.7969 16.7301 12.9085 16.9519 12.9112C17.204 12.9145 17.4561 12.9098 17.7082 12.9132C18.4167 12.9219 18.9343 13.4322 18.9444 14.136C18.9498 14.5219 18.9451 14.9084 18.9451 15.3218C18.5464 15.3218 18.1566 15.3218 17.7398 15.3218C17.7398 15.6035 17.7398 15.8596 17.7398 16.1265C17.4635 16.1265 17.2147 16.1265 16.9391 16.1265C16.9391 15.8724 16.9391 15.6169 16.9391 15.346C16.5452 15.3084 16.203 15.1854 15.9899 14.8694C15.8501 14.6624 15.7735 14.4123 15.6484 14.138C15.9852 14.138 16.242 14.138 16.5116 14.138C16.5755 14.46 16.8013 14.5413 17.1065 14.5286C17.4406 14.5145 17.7754 14.5252 18.1391 14.5252C18.1391 14.3914 18.1424 14.2772 18.1384 14.1622C18.1283 13.8779 17.9818 13.7266 17.7008 13.7199C17.4406 13.7132 17.1798 13.7226 16.919 13.7165C16.2548 13.7011 15.7365 13.1915 15.721 12.532C15.713 12.1314 15.7204 11.7294 15.7204 11.3005Z" fill="#59598E"/>
</svg>
